HIERARCHY
ROOT hip
{
	OFFSET 0.000000 0.000000 0.000000
	CHANNELS 6 Xposition Yposition Zposition Xrotation Zrotation Yrotation 
	JOINT abdomen
	{
		OFFSET 0.000000 3.422050 0.000000
		CHANNELS 3 Xrotation Zrotation Yrotation 
		JOINT chest
		{
			OFFSET 0.000000 8.486693 -0.684411
			CHANNELS 3 Xrotation Zrotation Yrotation 
			JOINT neck
			{
				OFFSET 0.000000 10.266162 -0.273764
				CHANNELS 3 Xrotation Zrotation Yrotation 
				JOINT head
				{
					OFFSET 0.000000 3.148285 0.000000
					CHANNELS 3 Xrotation Zrotation Yrotation 
					End Site
					{
						OFFSET 0.000000 3.148289 0.000000
					}
				}
			}
			JOINT lCollar
			{
				OFFSET 3.422053 6.707223 -0.821293
				CHANNELS 3 Yrotation Zrotation Xrotation 
				JOINT lShldr
				{
					OFFSET 3.285171 0.000000 0.000000
					CHANNELS 3 Zrotation Yrotation Xrotation 
					JOINT lForeArm
					{
						OFFSET 10.129278 0.000000 0.000000
						CHANNELS 3 Yrotation Zrotation Xrotation 
						JOINT lHand
						{
							OFFSET 8.486692 0.000000 0.000000
							CHANNELS 3 Zrotation Yrotation Xrotation 
							End Site
							{
								OFFSET 4.106464 0.000000 0.000000
							}
						}
					}
				}
			}
			JOINT rCollar
			{
				OFFSET -3.558935 6.707223 -0.821293
				CHANNELS 3 Yrotation Zrotation Xrotation 
				JOINT rShldr
				{
					OFFSET -3.148289 0.000000 0.000000
					CHANNELS 3 Zrotation Yrotation Xrotation 
					JOINT rForeArm
					{
						OFFSET -10.266159 0.000000 0.000000
						CHANNELS 3 Yrotation Zrotation Xrotation 
						JOINT rHand
						{
							OFFSET -8.349810 0.000000 0.000000
							CHANNELS 3 Zrotation Yrotation Xrotation 
							End Site
							{
								OFFSET -4.106464 0.000000 0.000000
							}
						}
					}
				}
			}
		}
	}
	JOINT lThigh
	{
		OFFSET 5.338403 -1.642589 1.368821
		CHANNELS 3 Xrotation Zrotation Yrotation 
		JOINT lShin
		{
			OFFSET -2.053232 -20.121670 0.000000
			CHANNELS 3 Xrotation Zrotation Yrotation 
			JOINT lFoot
			{
				OFFSET 0.000000 -19.300380 -1.231939
				CHANNELS 3 Xrotation Yrotation Zrotation 
				End Site
				{
					OFFSET 0.000000 -2.463878 4.653993
				}
			}
		}
	}
	JOINT rThigh
	{
		OFFSET -5.338403 -1.642589 1.368821
		CHANNELS 3 Xrotation Zrotation Yrotation 
		JOINT rShin
		{
			OFFSET 2.053232 -20.121670 0.000000
			CHANNELS 3 Xrotation Zrotation Yrotation 
			JOINT rFoot
			{
				OFFSET 0.000000 -19.300380 -1.231939
				CHANNELS 3 Xrotation Yrotation Zrotation 
				End Site
				{
					OFFSET 0.000000 -2.463878 4.653993
				}
			}
		}
	}
}
MOTION
Frames: 16
Frame Time: 0.049989
0.000000 43.528500 0.000000 0.000000 0.000000 0.000000 0.000000 0.000000 0.000000 0.000000 0.000000 0.000000 0.000000 0.000000 0.000000 0.000000 0.000000 0.000000 0.000000 0.000000 0.000000 0.000000 0.000000 0.000000 0.000000 0.000000 0.000000 0.000000 0.000000 0.000000 0.000000 0.000000 0.000000 0.000000 0.000000 0.000000 0.000000 0.000000 0.000000 0.000000 0.000000 0.000000 0.000000 0.000000 0.000000 0.000000 0.000000 0.000000 0.000000 0.000000 0.000000 0.000000 0.000000 0.000000 0.000000 0.000000 0.000000 0.000000 0.000000 0.000000 
0.000000 3.996296 3.997990 -90.001862 -0.269606 179.747711 0.780282 0.789958 -0.195711 -20.782227 0.981802 -0.569372 9.988152 0.000000 0.000000 -56.004314 0.000000 0.000000 9.979439 20.584324 -40.903358 -40.683777 -43.463722 -11.912985 -85.524757 23.895153 -8.209212 -14.273961 22.370386 -11.985037 -9.569592 -21.027208 -40.860619 40.796398 43.366264 -11.761042 86.073334 -23.971939 -8.022035 13.738324 -23.052332 -11.900239 -2.003041 7.933865 0.006580 92.044151 4.991624 -0.911034 60.196358 7.462363 2.626873 -0.021044 -6.124616 -0.032144 93.024757 -5.088673 0.041361 60.845081 -7.349058 -1.772849 
0.000000 3.996296 3.997990 -90.001862 -0.269606 179.747711 0.447104 0.790017 -0.195688 -20.061184 0.981868 -0.569406 10.432268 0.000000 0.000000 -58.083008 0.000000 0.000000 10.210038 20.592422 -41.201431 -40.683777 -43.463722 -11.912985 -85.524757 23.895151 -8.209211 -14.273961 22.370386 -11.985037 -9.801021 -21.036766 -41.161053 40.796398 43.366261 -11.761039 86.073326 -23.971937 -8.022035 13.738324 -23.052332 -11.900239 -2.003041 7.933865 0.006580 92.044144 4.991623 -0.911034 60.196358 7.462363 2.626872 -0.021044 -6.124615 -0.032144 93.024757 -5.088673 0.041361 60.845081 -7.349058 -1.772849 
0.000000 3.996296 3.997990 -90.001862 -0.269606 179.747711 0.113881 0.790075 -0.195664 -19.339687 0.981934 -0.569440 10.876491 0.000000 0.000000 -60.173004 0.000000 0.000000 10.440717 20.599400 -41.499592 -40.683777 -43.463722 -11.912985 -85.524757 23.895155 -8.209215 -14.273961 22.370388 -11.985037 -10.032538 -21.045189 -41.461586 40.796398 43.366268 -11.761042 86.073334 -23.971939 -8.022035 13.738325 -23.052332 -11.900240 -2.003041 7.933865 0.006580 92.044151 4.991624 -0.911034 60.196358 7.462363 2.626873 -0.021044 -6.124616 -0.032144 93.024757 -5.088673 0.041361 60.845081 -7.349058 -1.772849 
0.000000 3.996296 3.997990 -90.001862 -0.269606 179.747711 -0.219381 0.790133 -0.195641 -18.617785 0.982000 -0.569473 11.320808 0.000000 0.000000 -62.272953 0.000000 0.000000 10.671466 20.605259 -41.797825 -40.683777 -43.463722 -11.912985 -85.524757 23.895153 -8.209212 -14.273961 22.370386 -11.985037 -10.264135 -21.052475 -41.762184 40.796398 43.366264 -11.761042 86.073334 -23.971939 -8.022035 13.738324 -23.052332 -11.900239 -2.003041 7.933865 0.006580 92.044151 4.991624 -0.911034 60.196358 7.462363 2.626873 -0.021044 -6.124616 -0.032144 93.024757 -5.088673 0.041361 60.845081 -7.349058 -1.772849 
0.000000 3.996296 3.997990 -90.001862 -0.269606 179.747711 -0.552678 0.790192 -0.195619 -17.895535 0.982067 -0.569504 11.765207 0.000000 0.000000 -64.381516 0.000000 0.000000 10.902271 20.609987 -42.096119 -40.683781 -43.463722 -11.912983 -85.524757 23.895153 -8.209212 -14.273961 22.370386 -11.985037 -10.495803 -21.058634 -42.062866 40.796394 43.366257 -11.761042 86.073334 -23.971939 -8.022035 13.738324 -23.052332 -11.900239 -2.003041 7.933865 0.006580 92.044151 4.991624 -0.911034 60.196358 7.462363 2.626873 -0.021044 -6.124615 -0.032144 93.024757 -5.088673 0.041361 60.845081 -7.349058 -1.772849 
0.000000 3.996296 3.997990 -90.001877 -0.269606 179.747711 -0.886003 0.790250 -0.195597 -17.173000 0.982134 -0.569535 12.209676 0.000000 0.000000 -66.497330 0.000000 0.000000 11.133121 20.613592 -42.394451 -40.683777 -43.463722 -11.912985 -85.524757 23.895153 -8.209212 -14.273962 22.370386 -11.985037 -10.727524 -21.063652 -42.363598 40.796406 43.366268 -11.761042 86.073334 -23.971939 -8.022035 13.738324 -23.052332 -11.900240 -2.003041 7.933866 0.006580 92.044151 4.991624 -0.911034 60.196358 7.462363 2.626873 -0.021044 -6.124616 -0.032144 93.024757 -5.088673 0.041361 60.845081 -7.349059 -1.772849 
0.000000 3.996296 3.997990 -90.001862 -0.269606 179.747711 -1.219350 0.790309 -0.195575 -16.450241 0.982202 -0.569566 12.654194 0.000000 0.000000 -68.618958 0.000000 0.000000 11.364007 20.616076 -42.692829 -40.683777 -43.463722 -11.912985 -85.524757 23.895153 -8.209212 -14.273961 22.370386 -11.985037 -10.959292 -21.067539 -42.664379 40.796398 43.366264 -11.761042 86.073334 -23.971939 -8.022035 13.738324 -23.052332 -11.900239 -2.003041 7.933865 0.006580 92.044151 4.991624 -0.911034 60.196358 7.462363 2.626873 -0.021044 -6.124616 -0.032144 93.024757 -5.088673 0.041361 60.845081 -7.349058 -1.772849 
0.000000 3.996296 3.997990 -90.001862 -0.269606 179.747711 -1.552714 0.790368 -0.195553 -15.727302 0.982270 -0.569595 13.098753 0.000000 0.000000 -70.744980 0.000000 0.000000 11.594915 20.617430 -42.991226 -40.683777 -43.463722 -11.912985 -85.524757 23.895153 -8.209212 -14.273961 22.370386 -11.985036 -11.191094 -21.070292 -42.965191 40.796398 43.366264 -11.761042 86.073334 -23.971939 -8.022035 13.738324 -23.052332 -11.900239 -2.003041 7.933865 0.006580 92.044151 4.991624 -0.911034 60.196358 7.462363 2.626873 -0.021044 -6.124616 -0.032144 93.024757 -5.088673 0.041361 60.845081 -7.349058 -1.772849 
0.000000 3.996296 3.997990 -90.001862 -0.269606 179.747711 -1.886089 0.790427 -0.195532 -15.004254 0.982339 -0.569624 13.543339 0.000000 0.000000 -72.873947 0.000000 0.000000 11.825837 20.617662 -43.289642 -40.683777 -43.463722 -11.912985 -85.524757 23.895149 -8.209209 -14.273960 22.370384 -11.985036 -11.422917 -21.071905 -43.266022 40.796391 43.366257 -11.761039 86.073334 -23.971937 -8.022033 13.738324 -23.052332 -11.900239 -2.003041 7.933865 0.006580 92.044151 4.991623 -0.911034 60.196358 7.462363 2.626872 -0.021044 -6.124616 -0.032144 93.024757 -5.088673 0.041361 60.845081 -7.349058 -1.772849 
0.000000 3.996296 3.997990 -90.001862 -0.269606 179.747711 -2.219471 0.790486 -0.195511 -14.281144 0.982408 -0.569651 13.987938 0.000000 0.000000 -75.004372 0.000000 0.000000 12.056764 20.616770 -43.588066 -40.683777 -43.463722 -11.912985 -85.524757 23.895153 -8.209214 -14.273961 22.370386 -11.985037 -11.654753 -21.072384 -43.566872 40.796398 43.366264 -11.761042 86.073334 -23.971939 -8.022035 13.738325 -23.052332 -11.900240 -2.003041 7.933865 0.006580 92.044151 4.991624 -0.911034 60.196358 7.462363 2.626873 -0.021044 -6.124616 -0.032144 93.024757 -5.088673 0.041361 60.845081 -7.349058 -1.772849 
0.000000 3.996296 3.997990 -90.001862 -0.269606 179.747711 -2.552852 0.790545 -0.195490 -13.558038 0.982477 -0.569678 14.432538 0.000000 0.000000 -77.134804 0.000000 0.000000 12.287674 20.614746 -43.886467 -40.683777 -43.463722 -11.912985 -85.524757 23.895153 -8.209212 -14.273961 22.370388 -11.985037 -11.886589 -21.071732 -43.867722 40.796398 43.366264 -11.761042 86.073334 -23.971939 -8.022035 13.738324 -23.052332 -11.900239 -2.003041 7.933865 0.006580 92.044151 4.991624 -0.911034 60.196358 7.462363 2.626873 -0.021044 -6.124616 -0.032144 93.024757 -5.088673 0.041361 60.845081 -7.349058 -1.772849 
0.000000 3.996296 3.997990 -90.001862 -0.269606 179.747711 -2.886227 0.790605 -0.195470 -12.834985 0.982547 -0.569704 14.877124 0.000000 0.000000 -79.263763 0.000000 0.000000 12.518564 20.611603 -44.184853 -40.683777 -43.463722 -11.912985 -85.524757 23.895153 -8.209214 -14.273962 22.370390 -11.985037 -12.118411 -21.069941 -44.168556 40.796406 43.366268 -11.761044 86.073334 -23.971941 -8.022036 13.738324 -23.052332 -11.900239 -2.003041 7.933865 0.006580 92.044151 4.991624 -0.911034 60.196358 7.462363 2.626873 -0.021044 -6.124616 -0.032144 93.024757 -5.088673 0.041361 60.845081 -7.349059 -1.772849 
0.000000 3.996296 3.997990 -90.001862 -0.269606 179.747711 -3.219592 0.790664 -0.195451 -12.112049 0.982617 -0.569729 15.321678 0.000000 0.000000 -81.389801 0.000000 0.000000 12.749422 20.607328 -44.483204 -40.683777 -43.463722 -11.912985 -85.524757 23.895153 -8.209212 -14.273961 22.370384 -11.985036 -12.350210 -21.067013 -44.469368 40.796398 43.366264 -11.761042 86.073334 -23.971939 -8.022035 13.738324 -23.052332 -11.900239 -2.003041 7.933865 0.006580 92.044151 4.991624 -0.911034 60.196358 7.462363 2.626873 -0.021044 -6.124616 -0.032144 93.024757 -5.088673 0.041361 60.845081 -7.349058 -1.772849 
0.000000 3.996296 3.997990 -90.001862 -0.269606 179.747711 -3.552939 0.790724 -0.195431 -11.389283 0.982686 -0.569753 15.766199 0.000000 0.000000 -83.511436 0.000000 0.000000 12.980233 20.601931 -44.781506 -40.683777 -43.463722 -11.912985 -85.524757 23.895153 -8.209212 -14.273961 22.370386 -11.985037 -12.581973 -21.062948 -44.770134 40.796398 43.366264 -11.761042 86.073334 -23.971939 -8.022035 13.738324 -23.052332 -11.900239 -2.003041 7.933865 0.006580 92.044151 4.991624 -0.911034 60.196358 7.462363 2.626873 -0.021044 -6.124616 -0.032144 93.024757 -5.088673 0.041361 60.845081 -7.349058 -1.772849 
0.000000 3.996296 3.997990 -90.001862 -0.269606 179.747711 -3.886263 0.790784 -0.195412 -10.666750 0.982757 -0.569776 16.210665 0.000000 0.000000 -85.627235 0.000000 0.000000 13.210994 20.595409 -45.079765 -40.683777 -43.463722 -11.912985 -85.524757 23.895153 -8.209212 -14.273959 22.370384 -11.985036 -12.813687 -21.057747 -45.070862 40.796394 43.366261 -11.761039 86.073334 -23.971939 -8.022035 13.738324 -23.052332 -11.900239 -2.003041 7.933865 0.006580 92.044151 4.991624 -0.911034 60.196358 7.462363 2.626872 -0.021044 -6.124616 -0.032144 93.024757 -5.088673 0.041362 60.845081 -7.349058 -1.772849 
